# xmcd
#
# Track frame offsets: 
#        150
#        17898
#        30013
#        45670
#        60536
#        84412
#        99025
#        122548
#        137318
#        155536
#        172731
#        188314
#
# Disc length: 2606 seconds
#
# Revision: 0
# Processed by: cddbd v1.5.2PL0 Copyright (c) Steve Scherf et al.
# Submitted via: ExactAudioCopy v1.0b1
#
DISCID=740a2c0c
DTITLE=Peter Rowan - The Old School
DYEAR=2013
DGENRE=Bluegrass
TTITLE0=Keepin' It Between the Lines (Old School)
TTITLE1=That's All She Wrote
TTITLE2=True Love to Last
TTITLE3=Ragged Old Dream
TTITLE4=Doc Watson Morning
TTITLE5=Drop the Bone
TTITLE6=Letter from Beyond
TTITLE7=Stealin' My Time
TTITLE8=A Mountain Man's Dream
TTITLE9=My Savior Is Callin' Me
TTITLE10=O Freedom
TTITLE11=Keepin' It Between the Lines (Old School) Reprise
EXTD=
EXTT0=
EXTT1=
EXTT2=
EXTT3=
EXTT4=
EXTT5=
EXTT6=
EXTT7=
EXTT8=
EXTT9=
EXTT10=
EXTT11=
PLAYORDER=
